<svg xmlns="http://www.w3.org/2000/svg" xmlns:xlink="http://www.w3.org/1999/xlink" viewBox="0 0 800 500">
  <!-- タイトル -->
  <text x="400" y="30" font-family="Arial" font-size="20" text-anchor="middle" font-weight="bold">React Router v7: サーバーサイドレンダリング (SSR) フロー</text>
  
  <!-- エンティティ -->
  <rect x="50" y="70" width="120" height="60" rx="10" ry="10" fill="#d5e8d4" stroke="#82b366" stroke-width="2"/>
  <text x="110" y="105" font-family="Arial" font-size="14" text-anchor="middle">ブラウザ</text>
  
  <rect x="350" y="70" width="120" height="60" rx="10" ry="10" fill="#dae8fc" stroke="#6c8ebf" stroke-width="2"/>
  <text x="410" y="105" font-family="Arial" font-size="14" text-anchor="middle">サーバー</text>
  
  <rect x="650" y="70" width="120" height="60" rx="10" ry="10" fill="#f8cecc" stroke="#b85450" stroke-width="2"/>
  <text x="710" y="105" font-family="Arial" font-size="14" text-anchor="middle">React Router</text>
  
  <!-- ライフライン -->
  <line x1="110" y1="130" x2="110" y2="470" stroke="#82b366" stroke-width="2" stroke-dasharray="5,5"/>
  <line x1="410" y1="130" x2="410" y2="470" stroke="#6c8ebf" stroke-width="2" stroke-dasharray="5,5"/>
  <line x1="710" y1="130" x2="710" y2="470" stroke="#b85450" stroke-width="2" stroke-dasharray="5,5"/>
  
  <!-- ステップ1: リクエスト送信 -->
  <rect x="80" y="150" width="60" height="30" rx="5" ry="5" fill="#d5e8d4" stroke="#82b366" stroke-width="2"/>
  <text x="110" y="170" font-family="Arial" font-size="12" text-anchor="middle">リクエスト</text>
  
  <line x1="140" y1="165" x2="380" y2="165" stroke="#000000" stroke-width="1.5" marker-end="url(#arrow)"/>
  <text x="260" y="155" font-family="Arial" font-size="11" text-anchor="middle">1. ページリクエスト</text>
  
  <!-- ステップ2: アダプター -->
  <rect x="380" y="180" width="60" height="30" rx="5" ry="5" fill="#dae8fc" stroke="#6c8ebf" stroke-width="2"/>
  <text x="410" y="200" font-family="Arial" font-size="12" text-anchor="middle">アダプター</text>
  
  <line x1="440" y1="195" x2="680" y2="195" stroke="#000000" stroke-width="1.5" marker-end="url(#arrow)"/>
  <text x="560" y="185" font-family="Arial" font-size="11" text-anchor="middle">2. リクエスト変換</text>
  
  <!-- ステップ3: ルートマッチング -->
  <rect x="680" y="210" width="60" height="30" rx="5" ry="5" fill="#f8cecc" stroke="#b85450" stroke-width="2"/>
  <text x="710" y="230" font-family="Arial" font-size="12" text-anchor="middle">マッチング</text>
  
  <path d="M 710 240 Q 710 260 680 260 Q 650 260 650 280 Q 650 300 680 300" fill="none" stroke="#000000" stroke-width="1.5" marker-end="url(#arrow)"/>
  <text x="640" y="270" font-family="Arial" font-size="11" text-anchor="middle">3. ルート特定</text>
  
  <!-- ステップ4: loader実行 -->
  <rect x="680" y="300" width="60" height="30" rx="5" ry="5" fill="#f8cecc" stroke="#b85450" stroke-width="2"/>
  <text x="710" y="320" font-family="Arial" font-size="12" text-anchor="middle">loader実行</text>
  
  <line x1="680" y1="315" x2="440" y2="315" stroke="#000000" stroke-width="1.5" marker-end="url(#arrow)"/>
  <text x="560" y="305" font-family="Arial" font-size="11" text-anchor="middle">4. データ取得</text>
  
  <!-- ステップ5: SSR -->
  <rect x="380" y="330" width="60" height="30" rx="5" ry="5" fill="#dae8fc" stroke="#6c8ebf" stroke-width="2"/>
  <text x="410" y="350" font-family="Arial" font-size="12" text-anchor="middle">SSR</text>
  
  <line x1="410" y1="360" x2="410" y2="380" stroke="#000000" stroke-width="1.5" marker-end="url(#arrow)"/>
  <text x="430" y="370" font-family="Arial" font-size="11" text-anchor="left">5. ServerRouter</text>
  
  <!-- ステップ6: HTMLレンダリング -->
  <rect x="380" y="380" width="60" height="30" rx="5" ry="5" fill="#dae8fc" stroke="#6c8ebf" stroke-width="2"/>
  <text x="410" y="400" font-family="Arial" font-size="12" text-anchor="middle">HTML生成</text>
  
  <line x1="380" y1="395" x2="140" y2="395" stroke="#000000" stroke-width="1.5" marker-end="url(#arrow)"/>
  <text x="260" y="385" font-family="Arial" font-size="11" text-anchor="middle">6. HTML + 状態データ</text>
  
  <!-- ステップ7: 初期表示 -->
  <rect x="80" y="410" width="60" height="30" rx="5" ry="5" fill="#d5e8d4" stroke="#82b366" stroke-width="2"/>
  <text x="110" y="430" font-family="Arial" font-size="12" text-anchor="middle">初期表示</text>
  
  <!-- 注釈 -->
  <rect x="50" y="460" width="700" height="30" rx="5" ry="5" fill="#fff2cc" stroke="#d6b656" stroke-width="1"/>
  <text x="400" y="480" font-family="Arial" font-size="12" text-anchor="middle">window.__reactRouterContextにloader/actionデータを格納、クライアントへの状態引き継ぎを実現</text>
  
  <!-- マーカー定義 -->
  <defs>
    <marker id="arrow" markerWidth="10" markerHeight="10" refX="9" refY="3" orient="auto">
      <path d="M0,0 L0,6 L9,3 z" fill="#000000"/>
    </marker>
  </defs>
</svg>